%TF.GenerationSoftware,KiCad,Pcbnew,7.0.1*%
%TF.CreationDate,2023-10-26T23:35:24+05:30*%
%TF.ProjectId,CowTracking,436f7754-7261-4636-9b69-6e672e6b6963,rev?*%
%TF.SameCoordinates,Original*%
%TF.FileFunction,Soldermask,Top*%
%TF.FilePolarity,Negative*%
%FSLAX46Y46*%
G04 Gerber Fmt 4.6, Leading zero omitted, Abs format (unit mm)*
G04 Created by KiCad (PCBNEW 7.0.1) date 2023-10-26 23:35:24*
%MOMM*%
%LPD*%
G01*
G04 APERTURE LIST*
%ADD10C,2.000000*%
%ADD11C,1.524000*%
%ADD12R,1.500000X1.500000*%
%ADD13R,2.500000X2.500000*%
%ADD14C,3.900000*%
G04 APERTURE END LIST*
D10*
%TO.C,U3*%
X238105000Y-141545000D03*
X235483572Y-141545000D03*
X232862144Y-141545000D03*
X230240716Y-141545000D03*
X227619288Y-141545000D03*
X224997860Y-141545000D03*
X222376432Y-141545000D03*
X219755000Y-141545000D03*
%TD*%
D11*
%TO.C,U5*%
X286665000Y-135270000D03*
X284125000Y-135270000D03*
X281585000Y-135270000D03*
X279045000Y-135270000D03*
X276505000Y-135270000D03*
X273965000Y-135270000D03*
X271425000Y-135270000D03*
X268885000Y-135270000D03*
X266345000Y-135270000D03*
X263805000Y-135270000D03*
X261265000Y-135270000D03*
X258725000Y-135270000D03*
X256185000Y-135270000D03*
X253645000Y-135270000D03*
X251105000Y-135270000D03*
X251105000Y-158130000D03*
X253645000Y-158130000D03*
X256185000Y-158130000D03*
X258725000Y-158130000D03*
X261265000Y-158130000D03*
X263805000Y-158130000D03*
X266345000Y-158130000D03*
X268885000Y-158130000D03*
X271425000Y-158130000D03*
X273965000Y-158130000D03*
X276505000Y-158130000D03*
X279045000Y-158130000D03*
X281585000Y-158130000D03*
X284125000Y-158130000D03*
X286665000Y-158130000D03*
%TD*%
D12*
%TO.C,U2*%
X173350000Y-140875000D03*
X173350000Y-155900000D03*
X173350000Y-142875000D03*
X173350000Y-153900000D03*
X150350000Y-140875000D03*
X150350000Y-155875000D03*
%TD*%
D13*
%TO.C,U1*%
X181550000Y-141300000D03*
X181550000Y-155300000D03*
X199550000Y-155300000D03*
X199550000Y-141300000D03*
%TD*%
D14*
%TO.C,U4*%
X329600000Y-136300000D03*
X297800000Y-136300000D03*
X329600000Y-157000000D03*
X297800000Y-157000000D03*
D10*
X297450000Y-143200000D03*
X297450000Y-146200000D03*
X297450000Y-152200000D03*
X297450000Y-149300000D03*
%TD*%
M02*
