M48
; DRILL file {KiCad 7.0.1} date Thu Oct 26 23:35:55 2023
; FORMAT={-:-/ absolute / metric / decimal}
; #@! TF.CreationDate,2023-10-26T23:35:55+05:30
; #@! TF.GenerationSoftware,Kicad,Pcbnew,7.0.1
; #@! TF.FileFunction,Plated,1,2,PTH
FMAT,2
METRIC
; #@! TA.AperFunction,Plated,PTH,ComponentDrill
T1C0.750
; #@! TA.AperFunction,Plated,PTH,ComponentDrill
T2C0.762
; #@! TA.AperFunction,Plated,PTH,ComponentDrill
T3C1.000
; #@! TA.AperFunction,Plated,PTH,ComponentDrill
T4C1.500
; #@! TA.AperFunction,Plated,PTH,ComponentDrill
T5C3.500
%
G90
G05
T1
X181.55Y-155.3
T2
X251.105Y-135.27
X251.105Y-158.13
X253.645Y-135.27
X253.645Y-158.13
X256.185Y-135.27
X256.185Y-158.13
X258.725Y-135.27
X258.725Y-158.13
X261.265Y-135.27
X261.265Y-158.13
X263.805Y-135.27
X263.805Y-158.13
X266.345Y-135.27
X266.345Y-158.13
X268.885Y-135.27
X268.885Y-158.13
X271.425Y-135.27
X271.425Y-158.13
X273.965Y-135.27
X273.965Y-158.13
X276.505Y-135.27
X276.505Y-158.13
X279.045Y-135.27
X279.045Y-158.13
X281.585Y-135.27
X281.585Y-158.13
X284.125Y-135.27
X284.125Y-158.13
X286.665Y-135.27
X286.665Y-158.13
T3
X150.35Y-140.875
X150.35Y-155.875
X173.35Y-140.875
X173.35Y-142.875
X173.35Y-153.9
X173.35Y-155.9
X219.755Y-141.545
X222.376Y-141.545
X224.998Y-141.545
X227.619Y-141.545
X230.241Y-141.545
X232.862Y-141.545
X235.484Y-141.545
X238.105Y-141.545
X297.45Y-143.2
X297.45Y-146.2
X297.45Y-149.3
X297.45Y-152.2
T4
X181.55Y-141.3
X199.55Y-141.3
X199.55Y-155.3
T5
X297.8Y-136.3
X297.8Y-157.0
X329.6Y-136.3
X329.6Y-157.0
T0
M30
